<?xml version="1.0" encoding="UTF-8"?>
<svg enable-background="new 0 0 595.28 841.89" viewBox="0 0 595.28 841.89" xmlns="http://www.w3.org/2000/svg">
 <defs>
  <linearGradient id="c" x2="0" y1="303.7" y2="141.99" gradientUnits="userSpaceOnUse">
   <stop stop-color="#f2f2f2" stop-opacity=".41" offset="0"/>
   <stop stop-color="#f2f2f2" stop-opacity=".45" offset="1"/>
  </linearGradient>
  <linearGradient id="b" x2="0" y1="468.6" y2="322.7" gradientUnits="userSpaceOnUse">
   <stop stop-color="#81c1e1" offset="0"/>
   <stop stop-color="#0089a9" offset="1"/>
  </linearGradient>
  <linearGradient id="a" x2="0" y1="354.64" y2="237.86" gradientUnits="userSpaceOnUse">
   <stop stop-color="#f2f2f2" stop-opacity=".47" offset="0"/>
   <stop stop-color="#f2f2f2" stop-opacity=".45" offset="1"/>
  </linearGradient>
  <linearGradient id="e" x2="0" y1="395.65" y2="326.48" gradientUnits="userSpaceOnUse">
   <stop stop-color="#f2f2f2" stop-opacity=".27" offset="0"/>
   <stop stop-color="#f2f2f2" stop-opacity=".408" offset=".8625"/>
   <stop stop-color="#f2f2f2" stop-opacity=".43" offset="1"/>
  </linearGradient>
  <linearGradient id="d" x1="250.95" x2="250.95" y1="769.42" y2="484.79" gradientUnits="userSpaceOnUse">
   <stop stop-color="#f3e600" offset="0"/>
   <stop stop-color="#f9ea32" offset="1"/>
  </linearGradient>
 </defs>
 <path d="m100.39 315.13c1.38 0 2.739 0.043 4.102 0.113-0.483-5.182-0.758-10.424-0.758-15.728 0-93.619 75.905-169.52 169.53-169.52 69.304 0 128.86 41.61 155.14 101.2 4.528-0.522 9.118-0.818 13.781-0.818 65.907 0 119.34 53.428 119.34 119.34s-53.433 119.34-119.34 119.34h-341.79c-42.503 0-76.959-34.452-76.959-76.95 0-42.506 34.456-76.958 76.959-76.958z" fill="#7ec0e1"/>
 <path d="m149.26 222.84c0 44.649 55.518 80.852 124 80.852 68.472 0 123.99-36.202 123.99-80.852s-55.514-80.852-123.99-80.852c-68.477 0-124 36.202-124 80.852z" fill="url(#c)"/>
 <path d="m100.39 437.94c28.643 0 53.606-15.649 66.861-38.858 14.914 29.949 49.771 50.954 90.396 50.954 49.827 0 90.949-31.604 97.271-72.543 21.79 23.356 52.806 37.97 87.267 37.97 56.768 0 104.25-39.651 116.33-92.765 1.941 8.552 3.004 17.435 3.004 26.579 0 65.899-53.433 119.33-119.34 119.33h-341.79c-42.503 0-76.955-34.451-76.955-76.95 0-5.251 0.531-10.372 1.533-15.327 7.111 35.148 38.175 61.613 75.422 61.613z" fill="url(#b)"/>
 <path d="m10.273,392.089c0,49.683 40.426,90.109 90.113,90.109h.052 341.739c2.573,0 5.13-.088 7.664-.235 69.508-3.988 124.835-61.771 124.835-132.259 0-73.058-59.438-132.495-132.499-132.495-1.95,0-3.889.061-5.835.148-30.132-59.567-91.89-100.524-163.083-100.524-100.734,0-182.691,81.949-182.691,182.683 0,1.001.065,1.994.074,2.987-45.116,4.876-80.369,43.185-80.369,89.586zm13.159,0c0-42.507 34.452-76.959 76.955-76.959 23.205,0 43.992,10.285 58.104,26.527 3.188,3.666 6.027,7.629 8.478,11.861 3.505,6.035 6.192,12.601 7.96,19.542 2.647,9.615 14.596,6.602 13.254-1.245-2.586-11.2-7.258-21.606-13.599-30.794l.031-.026c-2.561-3.701-5.391-7.202-8.452-10.477l-.026.035c-11.3-12.07-25.869-21.04-42.276-25.473l-.074-.026c-1.385-.375-2.787-.705-4.198-1.01-.13-.035-.257-.069-.392-.096-1.315-.279-2.643-.522-3.984-.749-.218-.026-.427-.078-.649-.113-1.271-.201-2.556-.366-3.84-.505-.279-.035-.557-.079-.84-.113-1.298-.139-2.613-.227-3.937-.305-.261-.026-.522-.052-.788-.07-1.581-.078-3.17-.122-4.772-.122 1.146,0 2.282.052 3.41.087-.013-.845-.065-1.689-.065-2.543 0-93.619 75.905-169.524 169.528-169.524 64.366,0 120.354,35.871 149.063,88.725-.283.026-.566.069-.841.113-1.833.287-3.648.609-5.456.975-.944.191-1.881.409-2.83.627-.923.2-1.855.41-2.778.636-1.093.27-2.182.558-3.266.854-.701.191-1.397.392-2.104.601-1.201.348-2.407.705-3.597,1.097-.296.087-.596.2-.901.296-4.559,1.524-9.03,3.275-13.367,5.251l-.035.018c-32.009,14.674-57.19,41.724-69.404,75l-.026-.009c-1.528,4.171-2.848,8.456-3.953,12.819h.013c-.631,2.5-1.188,5.025-1.681,7.577-.078.383-.14.775-.209,1.149-.379,2.099-.71,4.197-.997,6.313-.087.653-.174,1.315-.253,1.977-.227,1.959-.413,3.928-.557,5.905-.048.662-.113,1.315-.145,1.968-.156,2.587-.252,5.199-.252,7.821 0,.548.035,1.088.043,1.637 .009,1.28.048,2.569.096,3.849 .074,1.716.188,3.422.322,5.121 1.246,9.867 14.762,7.394 13.099-1.236-.235-3.092-.401-6.209-.401-9.371 0-8.43.889-16.66 2.557-24.602 .967-4.651 2.238-9.197 3.74-13.629 15.941-47.149 60.513-81.104 113.039-81.104 65.907,0 119.34,53.428 119.34,119.335s-53.433,119.335-119.34,119.335h-57.534-.091-237.258-.148-46.762c-42.502,0-76.954-34.452-76.954-76.95zm72.069-89.987c-.044.009-.092.018-.14.018 .049-.001.097-.01.14-.018z" fill="#fff"/>
 <path d="m354.43 296.25c0 32.248 38.653 58.392 86.342 58.392s86.339-26.144 86.339-58.392-38.654-58.392-86.339-58.392c-47.689-1e-3 -86.342 26.143-86.342 58.392z" fill="url(#a)"/>
 <path d="m154.85 361.07a55.466 34.583 0 1 0 -110.93 0 55.466 34.583 0 1 0 110.93 0" fill="url(#e)"/>
 <path d="m192.1 722.84h35.627l42.045-86.719-120.5 10.82 83.798-167.24h98.214l-107.64 134.74 131.6-13.696-95.304 122.09h39.706l-79.201 57.1z" fill="#fff9c7"/>
 <path d="m239.34 484.79h78.501l-108.92 136.34 131.77-13.709-94.065 120.5h34.947l-57.549 41.489-20.592-41.489h30.618l47.523-98.009-120.38 10.808z" fill="url(#d)"/>
</svg>
