<?xml version="1.0" encoding="UTF-8"?>
<svg viewBox="0 0 348.16574 397.34125" xmlns="http://www.w3.org/2000/svg" xmlns:xlink="http://www.w3.org/1999/xlink">
 <defs>
  <clipPath id="m">
   <path transform="matrix(.79727 0 0 .49127 29.71 254.99)" d="m415.71 328.38a170.71 168.57 0 1 1 -341.43 0 170.71 168.57 0 1 1 341.43 0z"/>
  </clipPath>
  <clipPath id="l">
   <path transform="matrix(.96225 0 0 .98292 7.1874 8.5351)" d="m415.71 328.38a170.71 168.57 0 1 1 -341.43 0 170.71 168.57 0 1 1 341.43 0z"/>
  </clipPath>
  <clipPath id="k">
   <path transform="matrix(.96225 0 0 .98292 12.686 9.9393)" d="m415.71 328.38a170.71 168.57 0 1 1 -341.43 0 170.71 168.57 0 1 1 341.43 0z"/>
  </clipPath>
  <filter id="j">
   <feGaussianBlur stdDeviation="4.69282"/>
  </filter>
  <linearGradient id="b">
   <stop stop-color="#000080" offset="0"/>
   <stop stop-color="#000080" stop-opacity="0" offset="1"/>
  </linearGradient>
  <linearGradient id="h" x1="271.12" x2="179.02" y1="607.93" y2="51.877" gradientUnits="userSpaceOnUse">
   <stop stop-color="#008080" offset="0"/>
   <stop stop-color="#008080" stop-opacity="0" offset="1"/>
  </linearGradient>
  <linearGradient id="g" x1="-29.928" x2="321.98" y1="-188.24" y2="482.96" gradientUnits="userSpaceOnUse">
   <stop stop-color="#0ff" offset="0"/>
   <stop stop-color="#0ff" stop-opacity="0" offset="1"/>
  </linearGradient>
  <linearGradient id="e" x1="255.97" x2="254.48" y1="226.95" y2="344.16" gradientUnits="userSpaceOnUse">
   <stop stop-color="#fff" offset="0"/>
   <stop stop-color="#fff" stop-opacity="0" offset="1"/>
  </linearGradient>
  <linearGradient id="d" x1="247.29" x2="241.43" y1="762.05" y2="146.95" gradientUnits="userSpaceOnUse">
   <stop offset="0"/>
   <stop stop-opacity="0" offset="1"/>
  </linearGradient>
  <linearGradient id="i" x1="265.71" x2="248.57" y1="866.65" y2="559.51" gradientTransform="matrix(.93104 0 0 1 19.606 0)" gradientUnits="userSpaceOnUse" xlink:href="#b"/>
  <linearGradient id="f" x1="233.58" x2="219.92" y1="635.63" y2="330.79" gradientUnits="userSpaceOnUse" xlink:href="#b"/>
  <radialGradient id="c" cx="652.73" cy="1033.1" r="539.29" gradientTransform="matrix(-.18644 .00083464 -.00021091 -.08789 375.6 897.43)" gradientUnits="userSpaceOnUse">
   <stop stop-color="#000080" offset="0"/>
   <stop stop-opacity="0" offset="1"/>
  </radialGradient>
  <radialGradient id="a" cx="347.56" cy="221.84" r="172.86" gradientTransform="matrix(-3.6034e-5 1.0362 -.67179 -.00065774 386.08 -8.3539)" gradientUnits="userSpaceOnUse">
   <stop stop-color="#e6e6e6" offset="0"/>
   <stop stop-color="#e6e6e6" stop-opacity="0" offset="1"/>
  </radialGradient>
 </defs>
 <g transform="matrix(.95037 0 0 .95037 -52.57 -405.01)">
  <path d="m181.82 774.97 137.55-1.1821 99.196 68.571-332.86-0.59628z" fill="url(#c)"/>
  <path transform="matrix(.97521 0 0 .18145 14.557 748.84)" d="m414.29 324.09c0 97.833-77.391 177.14-172.86 177.14s-172.86-79.31-172.86-177.14 77.391-177.14 172.86-177.14 172.86 79.31 172.86 177.14z" fill="url(#a)" opacity=".33"/>
  <path transform="matrix(1.7123 .06868 -.06868 1.7123 242.63 636.5)" d="m0 100c-3.1564 0-5.7151-44.772-5.7151-100s2.5587-100 5.7151-100" fill="none" stroke="#000080"/>
  <path transform="matrix(1.6812 .33203 -.33203 1.6812 242.63 636.5)" d="m0 100c-14.729 0-26.67-44.772-26.67-100s11.941-100 26.67-100" fill="none" stroke="#000080"/>
  <path transform="matrix(1.5982 .61832 -.61832 1.5982 242.63 636.5)" d="m0 100c-25.299 0-45.807-44.772-45.807-100s20.509-100 45.807-100" fill="none" stroke="#000080"/>
  <path transform="matrix(1.4303 .94377 -.94377 1.4303 242.63 636.5)" d="m0 100c-34.144 0-61.823-44.772-61.823-100s27.679-100 61.823-100" fill="none" stroke="#000080"/>
  <path transform="matrix(1.1101 1.3055 -1.3055 1.1101 242.63 636.5)" d="m0 100c-40.662 0-73.626-44.772-73.626-100s32.963-100 73.626-100" fill="none" stroke="#000080"/>
  <path transform="matrix(.55001 1.623 -1.623 .55001 242.63 636.5)" d="m0 100c-44.41 0-80.411-44.772-80.411-100s36.001-100 80.411-100" fill="none" stroke="#000080"/>
  <path transform="matrix(.20738 -1.701 1.701 .20738 242.63 636.5)" d="m0-100c45.131 0 81.717 44.772 81.717 100s-36.586 100-81.717 100" fill="none" stroke="#000080"/>
  <path transform="matrix(.882 -1.4692 1.4692 .882 242.63 636.5)" d="m0-100c42.776 0 77.453 44.772 77.453 100s-34.677 100-77.453 100" fill="none" stroke="#000080"/>
  <path transform="matrix(1.3055 -1.1101 1.1101 1.3055 242.63 636.5)" d="m0-100c37.507 0 67.912 44.772 67.912 100s-30.405 100-67.912 100" fill="none" stroke="#000080"/>
  <path transform="matrix(1.5336 -.76465 .76465 1.5336 242.63 636.5)" d="m0-100c29.681 0 53.742 44.772 53.742 100s-24.061 100-53.742 100" fill="none" stroke="#000080"/>
  <path transform="matrix(1.6503 -.46167 .46167 1.6503 242.63 636.5)" d="m0-100c19.833 0 35.91 44.772 35.91 100s-16.078 100-35.91 100" fill="none" stroke="#000080"/>
  <path transform="matrix(1.7031 -.18988 .18988 1.7031 242.63 636.5)" d="m0-100c8.6328 0 15.631 44.772 15.631 100s-6.9983 100-15.631 100" fill="none" stroke="#000080"/>
  <path transform="matrix(1.7136 0 0 1.7136 242.63 636.5)" d="m15.682 98.764c-10.262 1.6294-21.102 1.6294-31.364 1e-6" fill="none" stroke="#000080"/>
  <path transform="matrix(1.7136 0 0 1.7136 242.63 636.5)" d="m50.483 86.322c-27.345 15.992-72.114 16.242-99.995 0.55695-0.3268-0.18384-0.65047-0.3695-0.97099-0.55695" fill="none" stroke="#000080"/>
  <path transform="matrix(1.7136 0 0 1.7136 242.63 636.5)" d="m69.65 71.756c-22.73 22.064-72.341 29.381-110.81 16.343-11.749-3.9822-21.551-9.6044-28.493-16.343" fill="none" stroke="#000080"/>
  <path transform="matrix(1.7136 0 0 1.7136 242.63 636.5)" d="m83.237 55.422c-17.556 26.368-69.055 39.58-115.03 29.51-23.689-5.1893-42.401-15.922-51.448-29.51" fill="none" stroke="#000080"/>
  <path transform="matrix(1.7136 0 0 1.7136 242.63 636.5)" d="m92.612 37.724c-11.95 29.338-63.101 47.564-114.25 40.71-35.232-4.7216-62.742-20.501-70.974-40.71" fill="none" stroke="#000080"/>
  <path transform="matrix(1.7136 0 0 1.7136 242.63 636.5)" d="m98.16 19.097c-6.0495 31.095-54.901 53.49-109.11 50.02-45.875-2.9363-82.087-23.707-87.206-50.02" fill="none" stroke="#000080"/>
  <path transform="matrix(1.7136 0 0 1.7136 242.63 636.5)" d="m100 0c0 31.678-44.772 57.359-100 57.359s-100-25.68-100-57.359" fill="none" stroke="#000080"/>
  <path transform="matrix(1.7136 0 0 1.7136 242.63 636.5)" d="m98.16-19.097c6.0495 31.095-32.994 59.116-87.206 62.586s-103.06-18.925-109.11-50.02c-0.81236-4.1756-0.81236-8.3901-1e-6 -12.566" fill="none" stroke="#000080"/>
  <path transform="matrix(1.7136 0 0 1.7136 242.63 636.5)" d="m92.612-37.724c11.95 29.338-19.826 58.677-70.974 65.532s-102.3-11.372-114.25-40.71c-3.3255-8.1641-3.3255-16.658 1e-6 -24.822" fill="none" stroke="#000080"/>
  <path transform="matrix(1.7136 0 0 1.7136 242.63 636.5)" d="m83.237-55.422c17.556 26.368-5.4777 55.907-51.448 65.977s-97.469-3.142-115.03-29.51c-7.8182-11.742-7.8182-24.725-2e-6 -36.467" fill="none" stroke="#000080"/>
  <path transform="matrix(1.7136 0 0 1.7136 242.63 636.5)" d="m69.65-71.756c22.73 22.064 9.9736 50.52-28.493 63.558s-88.077 5.7208-110.81-16.343c-15.002-14.562-15.002-32.653 1e-6 -47.215" fill="none" stroke="#000080"/>
  <path transform="matrix(1.7136 0 0 1.7136 242.63 636.5)" d="m50.483-86.322c27.345 15.992 26.91 41.672-0.97099 57.356s-72.65 15.435-99.995-0.55695c-26.97-15.773-26.97-41.026-3e-6 -56.799" fill="none" stroke="#000080"/>
  <path transform="matrix(1.7136 0 0 1.7136 242.63 636.5)" d="m15.682-98.764c31.286 4.9678 49.627 23.543 40.966 41.488s-41.044 28.466-72.33 23.498-49.627-23.543-40.966-41.488c5.5101-11.417 21.062-20.337 40.966-23.498" fill="none" stroke="#000080"/>
  <path transform="matrix(1.7136 0 0 1.7136 242.63 636.5)" d="m45.399-72.987c0 14.382-20.326 26.041-45.399 26.041s-45.399-11.659-45.399-26.041 20.326-26.041 45.399-26.041 45.399 11.659 45.399 26.041z" fill="none" stroke="#000080"/>
  <path transform="matrix(1.7136 0 0 1.7136 242.63 636.5)" d="m30.902-77.906c0 9.7895-13.835 17.725-30.902 17.725s-30.902-7.936-30.902-17.725 13.835-17.725 30.902-17.725 30.902 7.936 30.902 17.725z" fill="none" stroke="#000080"/>
  <path transform="matrix(1.7136 0 0 1.7136 242.63 636.5)" d="m15.643-80.907c0 4.956-7.0038 8.9737-15.643 8.9737s-15.643-4.0177-15.643-8.9737 7.0038-8.9737 15.643-8.9737 15.643 4.0177 15.643 8.9737z" fill="none" stroke="#000080"/>
  <path transform="matrix(1.7136 0 0 1.7136 242.63 636.5)" d="m100 0c0 55.228-44.772 100-100 100s-100-44.772-100-100 44.772-100 100-100 100 44.772 100 100z" fill="none" stroke="#000080"/>
  <path transform="matrix(1.0392 0 0 1.0174 -13.184 298.16)" d="m411.43 332.67c0 92.31-74.513 167.14-166.43 167.14s-166.43-74.832-166.43-167.14 74.513-167.14 166.43-167.14 166.43 74.832 166.43 167.14z" clip-path="url(#k)" fill="url(#h)" stroke="#000080" stroke-width=".2"/>
  <path transform="matrix(1.0392 0 0 1.0174 -7.4694 299.58)" d="m411.43 332.67c0 92.31-74.513 167.14-166.43 167.14s-166.43-74.832-166.43-167.14 74.513-167.14 166.43-167.14 166.43 74.832 166.43 167.14z" clip-path="url(#l)" fill="url(#g)" opacity=".88" stroke="#000080" stroke-width=".2"/>
  <path transform="matrix(1.2543 0 0 2.0355 -37.264 -210.78)" d="m382.86 419.81c0 44.972-69.396 81.429-155 81.429s-155-36.457-155-81.429 69.396-81.429 155-81.429 155 36.457 155 81.429z" clip-path="url(#m)" fill="url(#f)" opacity=".88"/>
  <path d="m253.66 560.86c-68.374 0-127.86 34.736-158.65 85.969-2.3215 8.9181-3.5787 18.186-3.5787 27.688 0 71.403 69.08 129.28 154.29 129.28s154.29-57.879 154.29-129.28c0-26.406-9.4737-50.973-25.691-71.438-32.023-26.247-74.297-42.219-120.66-42.219z" fill="url(#i)" opacity=".88"/>
  <path transform="matrix(1.043 0 0 2.0471 -5.0384 53.207)" d="m382.86 263.38c0 33.532-59.482 60.714-132.86 60.714s-132.86-27.183-132.86-60.714 59.482-60.714 132.86-60.714 132.86 27.183 132.86 60.714z" fill="url(#e)" filter="url(#j)" opacity=".88"/>
  <path transform="matrix(.97521 0 0 .94758 10.272 328.83)" d="m414.29 324.09c0 97.833-77.391 177.14-172.86 177.14s-172.86-79.31-172.86-177.14 77.391-177.14 172.86-177.14 172.86 79.31 172.86 177.14z" fill="url(#d)" opacity=".33"/>
  <path transform="matrix(.57025 0 0 .26613 112.33 673.54)" d="m414.29 324.09c0 97.833-77.391 177.14-172.86 177.14s-172.86-79.31-172.86-177.14 77.391-177.14 172.86-177.14 172.86 79.31 172.86 177.14z" fill="url(#a)" opacity=".22"/>
 </g>
</svg>
